<svg xmlns="http://www.w3.org/2000/svg">
  <symbol id="icon-vk" viewBox="0 0 29 18" >
    <path d="M0.0914307 2.48988C0.0914307 1.63485 0.643326 1.17381 1.74712 1.10674L6.00052 1.13189C6.28599 1.13189 6.47629 1.25763 6.57145 1.50911C7.00916 2.76651 7.4992 3.85206 8.04158 4.76577C8.58397 5.67948 9.29287 6.7315 10.1683 7.92183C10.2444 8.07272 10.3681 8.14816 10.5394 8.14816C10.6726 8.14816 10.7773 8.08949 10.8534 7.97213L10.939 7.6955L10.9676 3.34491C10.9676 3.04313 10.8867 2.84195 10.7249 2.74136C10.5632 2.64077 10.2634 2.56532 9.82573 2.51503C9.48318 2.46473 9.3119 2.28031 9.3119 1.96177C9.3119 1.89471 9.32141 1.84442 9.34044 1.81089C9.74009 0.721143 10.8819 0.176271 12.766 0.176271L14.3646 0.151123C15.0878 0.151123 15.6872 0.310393 16.163 0.628934C16.6388 0.947474 16.8767 1.45043 16.8767 2.13781V7.84639C17.0099 7.93022 17.1336 7.97213 17.2478 7.97213C17.5332 7.97213 17.7806 7.82124 17.99 7.51947C20.0834 4.93761 21.2157 3.21079 21.387 2.33899C21.387 2.32223 21.406 2.28031 21.4441 2.21325C21.5773 1.96177 21.7962 1.74383 22.1007 1.55941C22.4051 1.37499 22.6716 1.24925 22.9 1.18219C22.9761 1.14866 23.0617 1.13189 23.1569 1.13189H27.5816L27.867 1.15704C28.2476 1.15704 28.5426 1.31631 28.752 1.63485C28.8281 1.73544 28.8804 1.84442 28.909 1.96177C28.9375 2.07913 28.9565 2.19649 28.966 2.31384C28.9756 2.4312 28.9803 2.49826 28.9803 2.51503V2.69106C28.8471 3.37844 28.5093 4.11192 27.9669 4.89151C27.4245 5.67109 26.7347 6.51355 25.8973 7.41887C25.06 8.3242 24.5366 8.91937 24.3273 9.20438C24.156 9.40556 24.0704 9.58998 24.0704 9.75763C24.0704 9.89175 24.1465 10.0426 24.2987 10.2103L28.4665 14.8375C28.6949 15.1058 28.809 15.3992 28.809 15.7177C28.809 16.1033 28.6378 16.4218 28.2952 16.6733C27.9527 16.9248 27.5435 17.0673 27.0677 17.1008L26.5824 17.126H22.2434C22.2244 17.126 22.1863 17.1302 22.1292 17.1385C22.0721 17.1469 22.034 17.1511 22.015 17.1511C21.5963 17.1511 21.2062 16.9919 20.8446 16.6733C20.7114 16.5392 19.8169 15.55 18.1613 13.7059C18.0661 13.5885 17.9329 13.4795 17.7616 13.3789C17.6855 13.6472 17.5856 14.0328 17.4619 14.5357C17.3382 15.0387 17.2478 15.3992 17.1907 15.6171L17.105 16.0446C16.9147 16.6314 16.5151 16.9835 15.9061 17.1008L15.5065 17.126H12.7089C11.1293 17.126 9.55454 16.4889 7.98449 15.2147C6.41444 13.9406 5.0014 12.2934 3.74536 10.2732C2.48932 8.25295 1.31892 5.90162 0.234162 3.21917C0.139008 3.00122 0.0914307 2.75813 0.0914307 2.48988ZM17.2478 9.00319C16.8481 9.00319 16.4865 8.90679 16.163 8.71399C15.8395 8.52119 15.6777 8.25714 15.6777 7.92183V2.13781C15.6777 1.8025 15.5826 1.5636 15.3923 1.42109C15.202 1.27859 14.8689 1.20734 14.3931 1.20734L12.766 1.25763C11.9477 1.25763 11.3292 1.38337 10.9105 1.63485C11.7479 1.98692 12.1665 2.55694 12.1665 3.34491V7.77095C12.1285 8.19008 11.9382 8.53796 11.5956 8.81458C11.253 9.09121 10.8724 9.22953 10.4538 9.22953C9.88282 9.22953 9.44511 8.98643 9.14062 8.50024C7.65621 6.52193 6.55242 4.64422 5.82924 2.8671L5.57233 2.21325L1.77566 2.18811C1.52826 2.18811 1.39029 2.20068 1.36174 2.22583C1.3332 2.25098 1.31892 2.32223 1.31892 2.43958C1.31892 2.59047 1.33795 2.74974 1.37602 2.9174L1.97549 4.32568C3.57408 7.96375 5.31065 10.8306 7.18519 12.9263C9.05974 15.0219 10.901 16.0698 12.7089 16.0698H15.5635C15.6777 16.0698 15.7634 16.0404 15.8205 15.9817C15.8776 15.9231 15.9251 15.8099 15.9632 15.6422L16.0203 15.3908L16.5627 13.1778C16.7149 12.876 16.8481 12.6748 16.9623 12.5742C17.1717 12.3898 17.4191 12.2976 17.7045 12.2976C18.1613 12.2976 18.6275 12.5407 19.1033 13.0269L21.5297 15.7428C21.682 15.9608 21.8437 16.0698 22.015 16.0698H26.7252C27.2961 16.0698 27.5816 15.944 27.5816 15.6925C27.5816 15.6087 27.553 15.5249 27.4959 15.4411L23.3567 10.8893C23.0332 10.5372 22.8714 10.16 22.8714 9.75763C22.8714 9.35527 23.0237 8.96966 23.3281 8.60083C23.5755 8.26552 24.0561 7.70808 24.7697 6.92849C25.4834 6.1489 26.1067 5.41961 26.6395 4.74062C27.1724 4.06163 27.5245 3.4455 27.6957 2.89225L27.7814 2.56532C27.7623 2.53179 27.7528 2.47731 27.7528 2.40186C27.7528 2.32642 27.7433 2.26355 27.7243 2.21325H23.2425C22.957 2.31384 22.7287 2.46473 22.5574 2.66592L22.3861 3.14373C21.9103 4.30053 20.6638 6.08603 18.6465 8.50024C18.2469 8.83554 17.7806 9.00319 17.2478 9.00319Z" fill="currentColor"/>
  </symbol>

  <symbol id="icon-instagram" viewBox="0 0 23 23" >
    <path d="M11.4775 0.0898438C13.3942 0.0898438 14.959 0.112305 16.1719 0.157227C17.2051 0.202148 18.126 0.381836 18.9346 0.696289C19.7132 0.995768 20.387 1.43001 20.9561 1.99902C21.5251 2.56803 21.9593 3.24186 22.2588 4.02051C22.5732 4.8291 22.7529 5.75 22.7979 6.7832C22.8428 7.99609 22.8652 9.56087 22.8652 11.4775C22.8652 13.3942 22.8428 14.959 22.7979 16.1719C22.7529 17.2051 22.5732 18.126 22.2588 18.9346C21.9593 19.7132 21.5251 20.387 20.9561 20.9561C20.387 21.5251 19.7132 21.9593 18.9346 22.2588C18.126 22.5732 17.2051 22.7529 16.1719 22.7978C14.959 22.8428 13.3942 22.8652 11.4775 22.8652C9.56087 22.8652 7.99609 22.8428 6.7832 22.7978C5.75 22.7529 4.8291 22.5732 4.02051 22.2588C3.24186 21.9593 2.56803 21.5251 1.99902 20.9561C1.43001 20.387 0.995768 19.7132 0.696289 18.9346C0.381836 18.126 0.202148 17.2051 0.157227 16.1719C0.112305 14.959 0.0898438 13.3942 0.0898438 11.4775C0.0898438 9.56087 0.112305 7.99609 0.157227 6.7832C0.202148 5.75 0.381836 4.8291 0.696289 4.02051C0.995768 3.24186 1.43001 2.56803 1.99902 1.99902C2.56803 1.43001 3.24186 0.995768 4.02051 0.696289C4.8291 0.381836 5.75 0.202148 6.7832 0.157227C7.99609 0.112305 9.56087 0.0898438 11.4775 0.0898438ZM11.4775 1.57227C9.486 1.57227 7.86133 1.59473 6.60352 1.63965C5.79492 1.6696 5.04622 1.81185 4.35742 2.06641C3.2793 2.51562 2.51562 3.2793 2.06641 4.35742C1.81185 5.04622 1.6696 5.79492 1.63965 6.60352C1.59473 7.86133 1.57227 9.486 1.57227 11.4775C1.57227 13.4691 1.59473 15.0937 1.63965 16.3516C1.6696 17.1602 1.81185 17.9089 2.06641 18.5977C2.51562 19.6758 3.2793 20.4395 4.35742 20.8887C5.04622 21.1432 5.79492 21.2855 6.60352 21.3154C7.86133 21.3603 9.486 21.3828 11.4775 21.3828C13.4691 21.3828 15.0938 21.3603 16.3516 21.3154C17.1602 21.2855 17.9089 21.1432 18.5977 20.8887C19.6758 20.4395 20.4395 19.6758 20.8887 18.5977C21.1432 17.9089 21.2855 17.1602 21.3154 16.3516C21.3604 15.0937 21.3828 13.4691 21.3828 11.4775C21.3828 9.486 21.3604 7.86133 21.3154 6.60352C21.2855 5.79492 21.1432 5.04622 20.8887 4.35742C20.4395 3.2793 19.6758 2.51562 18.5977 2.06641C17.9089 1.81185 17.1602 1.6696 16.3516 1.63965C15.0938 1.59473 13.4691 1.57227 11.4775 1.57227ZM11.4775 16.0371C12.7354 16.0371 13.8097 15.5916 14.7007 14.7007C15.5916 13.8097 16.0371 12.7354 16.0371 11.4775C16.0371 10.2197 15.5916 9.14534 14.7007 8.25439C13.8097 7.36344 12.7354 6.91797 11.4775 6.91797C10.2197 6.91797 9.14534 7.36344 8.25439 8.25439C7.36344 9.14534 6.91797 10.2197 6.91797 11.4775C6.91797 12.7354 7.36344 13.8097 8.25439 14.7007C9.14534 15.5916 10.2197 16.0371 11.4775 16.0371ZM11.4775 5.63769C13.0947 5.63769 14.4723 6.20671 15.6104 7.34473C16.7484 8.48275 17.3174 9.86035 17.3174 11.4775C17.3174 13.0947 16.7484 14.4723 15.6104 15.6104C14.4723 16.7484 13.0947 17.3174 11.4775 17.3174C9.86035 17.3174 8.48275 16.7484 7.34473 15.6104C6.20671 14.4723 5.6377 13.0947 5.6377 11.4775C5.6377 9.86035 6.20671 8.48275 7.34473 7.34473C8.48275 6.20671 9.86035 5.63769 11.4775 5.63769ZM18.9346 5.41309C18.9346 5.78743 18.7998 6.10563 18.5303 6.36768C18.2607 6.62972 17.9313 6.76074 17.542 6.76074C17.1676 6.76074 16.8494 6.62972 16.5874 6.36768C16.3254 6.10563 16.1943 5.78743 16.1943 5.41309C16.1943 5.02376 16.3254 4.69434 16.5874 4.4248C16.8494 4.15527 17.1676 4.02051 17.542 4.02051C17.9163 4.02051 18.242 4.15902 18.519 4.43603C18.7961 4.71305 18.9346 5.03874 18.9346 5.41309Z" fill="currentColor"/>
  </symbol>

  <symbol id="icon-facebook" viewBox="0 0 15 29" >
    <path d="M14.0001 0.749756H10.5001C8.95299 0.749756 7.46925 1.45999 6.37529 2.72423C5.28133 3.98846 4.66675 5.70313 4.66675 7.49103V11.5358H1.16675V16.9288H4.66675V27.7148H9.33342V16.9288H12.8334L14.0001 11.5358H9.33342V7.49103C9.33342 7.13345 9.45633 6.79051 9.67512 6.53767C9.89392 6.28482 10.1907 6.14277 10.5001 6.14277H14.0001V0.749756Z" stroke="currentColor" stroke-width="1.1" stroke-linecap="round" stroke-linejoin="round"/>
  </symbol>

  <symbol id="icon-htmlacademy" viewBox="0 0 27 34" fill="none" >
    <path d="M13.6426 0.0157537L13.5 0L0 1.40733V26.0129L13.5 34L27 26.0129V1.40733L13.6426 0.0157537ZM25.2344 25.0151L13.5 31.9573L1.76561 25.0151V14.9293L13.4507 21.8451L13.4701 23.0984L5.45351 18.3548L5.44295 19.5801L13.4894 24.3885L13.5088 25.675L5.46408 20.9174L5.45351 22.1427L13.5 26.9511L21.6239 22.1182V20.8929V16.909L25.2432 14.7595L25.2344 25.0151ZM25.2344 13.4519L22.0147 15.3319L20.5325 16.2071L13.4666 12.0201L13.456 13.2454L19.4957 16.818L19.4429 16.8495L19.3126 16.9247L18.4536 17.4166L13.4666 14.4689L13.456 15.6942L17.3921 18.0222L16.4591 18.6314L16.438 18.6436L13.4666 16.902L13.456 18.1273L15.4029 19.2615L13.4155 20.4483L1.7973 13.5762L13.4349 6.61831L25.2344 13.4519ZM25.2344 12.2266L13.4401 5.31075L1.76561 12.2196V2.9897L13.5 1.76442L25.2344 2.9897V12.2266Z" fill="currentColor"/>
  </symbol>

  <symbol id="icon-plus" viewBox="0 0 60 60" fill="none">
    <line x1="31" x2="31" y2="60" stroke="#D3D3D3" stroke-width="2"/>
    <line x1="60" y1="31" y2="31" stroke="#D3D3D3" stroke-width="2"/>
  </symbol>


  <symbol id="icon-gift" viewBox="0 0 80 84" fill="none">
    <path d="M65.6571 36.7572H14.3908C12.5914 36.7572 11.1277 35.2941 11.1277 33.4953V23.7228C11.1277 21.9241 12.5914 20.4603 14.3908 20.4603H65.6564C67.4552 20.4603 68.9183 21.9241 68.9183 23.7228V33.4959C68.9189 35.2941 67.4558 36.7572 65.6571 36.7572ZM14.3908 22.9603C13.9771 22.9603 13.6277 23.3097 13.6277 23.7228V33.4959C13.6277 33.9159 13.9702 34.2578 14.3908 34.2578H65.6564C66.0764 34.2578 66.4183 33.9159 66.4183 33.4959V23.7228C66.4183 23.3091 66.0689 22.9603 65.6564 22.9603H14.3908Z" fill="white"/>
    <path d="M58.5075 70.236H21.5375C18.0737 70.236 15.2556 67.4185 15.2556 63.9541V35.5072C15.2556 34.8172 15.8156 34.2572 16.5056 34.2572C17.1956 34.2572 17.7556 34.8172 17.7556 35.5072V63.9541C17.7556 66.0397 19.4525 67.736 21.5375 67.736H58.5075C60.5919 67.736 62.2881 66.0397 62.2881 63.9541V35.5072C62.2881 34.8172 62.8481 34.2572 63.5381 34.2572C64.2281 34.2572 64.7881 34.8172 64.7881 35.5072V63.9541C64.7881 67.4185 61.9706 70.236 58.5075 70.236Z" fill="white"/>
    <path d="M40.0232 70.236C39.3332 70.236 38.7732 69.6766 38.7732 68.986V35.5072C38.7732 34.8172 39.3332 34.2572 40.0232 34.2572C40.7132 34.2572 41.2732 34.8172 41.2732 35.5072V68.9853C41.2732 69.6766 40.7138 70.236 40.0232 70.236Z" fill="white"/>
    <path d="M24.4218 22.956C20.5093 20.836 19.0493 15.9285 21.1674 12.0154C23.2843 8.10414 28.1911 6.64352 32.1055 8.75977C38.0686 11.9898 41.2886 21.001 41.4224 21.3829L39.0643 22.2123C39.0343 22.1273 36.0261 13.7266 30.9161 10.9585C28.213 9.49727 24.8268 10.506 23.3661 13.2054C21.9043 15.9073 22.9118 19.2948 25.6136 20.7579L24.4218 22.956Z" fill="white"/>
    <path d="M55.6218 22.956L54.4318 20.7572C55.7411 20.0478 56.6955 18.8722 57.1205 17.4466C57.5449 16.0203 57.388 14.5141 56.6786 13.206C55.9711 11.8966 54.7961 10.9428 53.3705 10.5185C51.9443 10.0941 50.4393 10.2503 49.1305 10.9585C44.0205 13.726 41.0124 22.1266 40.9824 22.2116L38.6243 21.3822C38.758 21.0003 41.9774 11.9891 47.9405 8.7597C49.8355 7.73345 52.0186 7.5072 54.0836 8.1222C56.1505 8.73658 57.8524 10.1197 58.878 12.0153C59.9049 13.9103 60.1318 16.0922 59.5168 18.1591C58.9011 20.2253 57.518 21.9285 55.6218 22.956Z" fill="white"/>
    <path d="M63.5381 53.4972H16.5056C15.8156 53.4972 15.2556 52.9372 15.2556 52.2472C15.2556 51.5572 15.8156 50.9972 16.5056 50.9972H63.5381C64.2281 50.9972 64.7881 51.5572 64.7881 52.2472C64.7881 52.9372 64.2287 53.4972 63.5381 53.4972Z" fill="white"/>
  </symbol>

  <symbol id="icon-email" viewBox="0 0 19 14" fill="none">
    <line x1="1.1793" y1="6" x2="1.1793" y2="14" stroke="#222222" stroke-width="1.3"/>
    <line x1="18.1793" y1="6" x2="18.1793" y2="14" stroke="#222222" stroke-width="1.3"/>
    <line x1="0.529297" y1="13.35" x2="18.5293" y2="13.35" stroke="#222222" stroke-width="1.3"/>
    <line x1="0.529297" y1="1.35" x2="18.5293" y2="1.35" stroke="#222222" stroke-width="1.3"/>
    <path d="M17.8793 3.1821L9.52932 9.67654L1.1793 3.18209V1.65H4.0293L9.52932 1.65H14.5293H17.8793V3.1821Z" stroke="#222222" stroke-width="1.3"/>
  </symbol>
  <svg id="icon-phone" viewBox="0 0 20 20" fill="none" >
    <g clip-path="url(#clip0_2403_1829)">
      <path d="M17.9 9.4H9.40002V10.6H17.9L15.8 12.7L16.7 13.6L19.8 10.5C19.8974 10.3702 19.95 10.2123 19.95 10.05C19.95 9.88772 19.8974 9.72982 19.8 9.6L16.7 6.5L15.8 7.4L17.9 9.4Z" fill="black"/>
      <path d="M8.09995 19.4V13.2C8.0884 13.0447 8.02148 12.8987 7.91136 12.7886C7.80125 12.6785 7.65525 12.6116 7.49995 12.6H3.09995C3.1051 12.9167 3.23318 13.2189 3.45712 13.4428C3.68106 13.6668 3.9833 13.7949 4.29995 13.8H6.79995V18.8H3.09995C2.86319 18.8149 2.62585 18.7825 2.4017 18.7048C2.17756 18.6271 1.97109 18.5057 1.7943 18.3475C1.61751 18.1893 1.47393 17.9976 1.37189 17.7834C1.26986 17.5693 1.21142 17.337 1.19995 17.1V3.10001C1.19175 2.6373 1.3651 2.18977 1.68286 1.85331C2.00062 1.51686 2.43752 1.31824 2.89995 1.30001H6.79995V6.30001H4.39995C4.0833 6.30516 3.78106 6.43324 3.55712 6.65718C3.33318 6.88112 3.2051 7.18336 3.19995 7.50001H7.59995C7.75525 7.48846 7.90125 7.42154 8.01136 7.31142C8.12148 7.2013 8.1884 7.05531 8.19995 6.90001V0.600012C8.15226 0.443872 8.06111 0.304534 7.93715 0.198285C7.81319 0.0920352 7.66155 0.0232649 7.49995 1.23734e-05H3.09995C2.70593 -0.0133408 2.31315 0.0511002 1.94405 0.189651C1.57495 0.328202 1.23678 0.538145 0.948872 0.807477C0.660965 1.07681 0.428969 1.40025 0.266146 1.7593C0.103324 2.11835 0.0128689 2.50598 -4.64045e-05 2.90001V16.8C-0.0290254 17.1977 0.0245894 17.597 0.157426 17.9729C0.290263 18.3489 0.499448 18.6932 0.771825 18.9844C1.0442 19.2756 1.37388 19.5072 1.74012 19.6648C2.10637 19.8224 2.50126 19.9024 2.89995 19.9H7.49995C7.57344 19.915 7.64937 19.9133 7.7221 19.895C7.79484 19.8767 7.86253 19.8423 7.92015 19.7942C7.97777 19.7462 8.02385 19.6859 8.05497 19.6176C8.0861 19.5494 8.10147 19.475 8.09995 19.4Z" fill="black"/>
    </g>
    <defs>
      <clipPath id="clip0_2403_1829">
        <rect width="20" height="20" fill="white"/>
      </clipPath>
    </defs>
  </svg>
</svg>
